<svg xmlns="http://www.w3.org/2000/svg" viewBox="0 0 512 512">
  <!-- Background circle with gradient -->
  <defs>
    <linearGradient id="bgGradient" x1="0%" y1="0%" x2="100%" y2="100%">
      <stop offset="0%" style="stop-color:#e8f5e8;stop-opacity:1" />
      <stop offset="100%" style="stop-color:#d4f1d4;stop-opacity:1" />
    </linearGradient>
    <linearGradient id="fireGradient" x1="0%" y1="0%" x2="100%" y2="100%">
      <stop offset="0%" style="stop-color:#ff6b35;stop-opacity:1" />
      <stop offset="50%" style="stop-color:#f7931e;stop-opacity:1" />
      <stop offset="100%" style="stop-color:#ff4500;stop-opacity:1" />
    </linearGradient>
  </defs>
  
  <!-- Background circle -->
  <circle cx="256" cy="256" r="240" fill="url(#bgGradient)" stroke="#c8e6c8" stroke-width="8"/>
  
  <!-- Fire shape -->
  <path d="M256 120 
           C 280 140, 300 160, 320 200
           C 340 240, 350 280, 340 320
           C 330 360, 300 380, 260 380
           C 220 380, 190 360, 180 320
           C 170 280, 180 240, 200 200
           C 220 160, 240 140, 256 120 Z" 
        fill="url(#fireGradient)"/>
  
  <!-- Inner fire highlights -->
  <path d="M256 140
           C 270 155, 285 170, 295 200
           C 305 230, 310 260, 305 290
           C 300 320, 285 340, 260 340
           C 235 340, 220 320, 215 290
           C 210 260, 215 230, 225 200
           C 235 170, 250 155, 256 140 Z" 
        fill="#fff" opacity="0.3"/>
  
  <!-- Fire base -->
  <ellipse cx="256" cy="360" rx="60" ry="20" fill="#8d6e63" opacity="0.8"/>
  
  <!-- Small flame details -->
  <path d="M240 180 Q 250 160 260 180 Q 270 200 260 220 Q 250 200 240 180" fill="#fff" opacity="0.4"/>
  <path d="M270 200 Q 280 180 290 200 Q 300 220 290 240 Q 280 220 270 200" fill="#fff" opacity="0.4"/>
  <path d="M230 220 Q 240 200 250 220 Q 260 240 250 260 Q 240 240 230 220" fill="#fff" opacity="0.4"/>
</svg>
